<?xml version="1.0" encoding="utf-8"?>
<!-- Generator: Adobe Illustrator 16.0.0, SVG Export Plug-In . SVG Version: 6.00 Build 0)  -->
<!DOCTYPE svg PUBLIC "-//W3C//DTD SVG 1.1//EN" "http://www.w3.org/Graphics/SVG/1.1/DTD/svg11.dtd">
<svg version="1.1" id="Layer_1" xmlns="http://www.w3.org/2000/svg" xmlns:xlink="http://www.w3.org/1999/xlink" x="0px" y="0px"
	 width="913px" height="278px" viewBox="0 0 913 278" enable-background="new 0 0 913 278" xml:space="preserve">
<rect display="none" width="913" height="278"/>
<g>
	<defs>
		<rect id="SVGID_1_" x="69.275" y="18.465" width="774.451" height="236.137"/>
	</defs>
	<clipPath id="SVGID_2_">
		<use xlink:href="#SVGID_1_"  overflow="visible"/>
	</clipPath>
	<path clip-path="url(#SVGID_2_)" fill="#FFFFFF" d="M164.044,248.99C42.14,201.477,80.125,39.418,80.125,39.418
		c22.016-11.581,71.939-15.737,83.918-15.737c11.977,0,61.899,4.157,83.916,15.737C247.96,39.418,285.943,201.477,164.044,248.99
		L164.044,248.99z"/>
	<path clip-path="url(#SVGID_2_)" fill="#005596" d="M164.033,248.996C42.129,201.484,80.115,39.425,80.115,39.425
		c22.018-11.58,71.939-15.733,83.918-15.733c11.976,0,61.899,4.154,83.918,15.733C247.952,39.425,285.934,201.484,164.033,248.996
		L164.033,248.996z M253.038,38.23l-0.549-2.324l-2.109-1.109c-23.292-12.246-74.634-16.333-86.347-16.333
		c-11.705,0-63.06,4.086-86.351,16.333l-2.112,1.113l-0.546,2.32c-0.393,1.693-9.638,41.96-3.852,88.804
		c3.43,27.726,11.465,51.927,23.881,71.929c15.63,25.174,38.199,43.639,67.083,54.895l1.896,0.744l1.902-0.744
		c28.877-11.256,51.447-29.721,67.076-54.895c12.418-20.002,20.454-44.203,23.875-71.929
		C262.679,80.19,253.432,39.923,253.038,38.23L253.038,38.23z"/>
</g>
<g>
	<path fill="#005596" d="M87.683,158.84c5.373,17.688,13.841,35.041,26.878,50.045L104.479,153.4
		c-7.406,2.084-13.216,4.105-16.785,5.436L87.683,158.84L87.683,158.84z"/>
	<path fill="#005596" d="M134.853,69.082c0,2.113,0.438,3.882,0.958,4.107c0,0-2.304,1.59-2.973,2.254
		c-0.66,0.668-3.582,4.204-3.582,4.204s-2.92-3.535-3.586-4.204c-0.662-0.664-2.965-2.254-2.965-2.254
		c0.518-0.225,0.952-1.994,0.952-4.107c0-2.562-1.489-4.852-3.663-4.852c-3.156,0-3.582,2.164-3.582,2.164s-2.912-2.735-2.912-5.376
		c0-6.005,3.234-5.601,4.628-5.601c3.225,0,7.617,5.026,7.617,5.026c-0.485-1.101-1.322-3.051-1.569-3.665
		c-0.097-0.25-0.231-0.551-0.361-0.896c-0.47-1.227-0.966-3.053-0.16-5.541c0.745-2.317,2.345-3.316,3.656-4.931
		c1.405-1.727,1.942-2.278,1.942-2.278s0.541,0.551,1.938,2.278c1.313,1.615,2.917,2.613,3.659,4.931
		c0.809,2.487,0.312,4.314-0.16,5.541c-0.128,0.346-0.26,0.646-0.359,0.896c-0.249,0.614-1.083,2.564-1.569,3.665
		c0,0,4.393-5.026,7.618-5.026c1.399,0,4.63-0.405,4.63,5.601c0,2.641-2.916,5.376-2.916,5.376s-0.424-2.164-3.58-2.164
		C136.337,64.229,134.853,66.52,134.853,69.082L134.853,69.082z M139.205,114.778l16.309-84.592
		c-12.359,0.953-32.896,3.053-50.196,7.2l13.638,80.482c6.846-1.314,13.625-2.348,20.153-3.081L139.205,114.778L139.205,114.778z"/>
	<path fill="#005596" d="M100.791,131.98c3.036-0.796,6.093-1.546,9.083-2.231l0.781-0.179c1.274-0.289,2.577-0.571,3.895-0.852
		l0.185-0.04c0.329-0.071,0.661-0.143,0.995-0.211c1.838-0.383,3.38-0.688,4.855-0.971l0.228-0.041l0.002,0.007
		c5.571-1.059,11.081-1.93,16.372-2.588l0.074-0.007l0.142-0.733l1.306-6.786c-6.286,0.725-12.816,1.729-19.416,2.992
		c-6.675,1.281-13.395,2.819-19.972,4.571c-6.18,1.647-12.157,3.448-17.773,5.354c-0.027,0.012-0.06,0.021-0.086,0.025h-0.012
		c0.206,1.422,0.571,4.046,1.129,7.093c5.639-1.88,11.864-3.728,18.002-5.346L100.791,131.98L100.791,131.98z"/>
	<path fill="#005596" d="M124.195,148.773l3.955,23.658l4.787-25.15c-2.805,0.422-5.666,0.91-8.737,1.49L124.195,148.773
		L124.195,148.773z"/>
	<path fill="#005596" d="M106.866,140.712l0.212-0.056c1.559-0.408,3.112-0.8,4.615-1.165l0.321-0.077
		c1.607-0.392,3.223-0.768,4.799-1.115l0.301-0.069c1.794-0.396,3.459-0.747,5.091-1.073c4.465-0.899,8.852-1.656,13.046-2.263
		l0.109-0.015l1.406-7.404c-5.124,0.662-10.419,1.518-15.747,2.535c-1.687,0.319-3.392,0.663-5.22,1.051l-0.299,0.063
		c-1.556,0.329-3.149,0.682-4.736,1.043l-0.282,0.067c-3.157,0.725-6.304,1.501-9.361,2.309c-5.837,1.536-11.72,3.3-17.995,5.396
		l-0.078,0.027c0.246,1.279,0.502,2.691,0.792,3.979c0.08,0.344,0.155,0.672,0.225,0.988c0.192,0.881,0.409,1.762,0.617,2.639
		c5.508-1.982,11.625-3.928,17.693-5.637C103.979,141.482,105.435,141.089,106.866,140.712L106.866,140.712z"/>
	<path fill="#005596" d="M117.721,140.668l-0.572,0.127c-4.77,1.072-9.578,2.287-14.286,3.617
		c-6.075,1.713-11.989,3.598-17.586,5.611l-0.019,0.008c0.526,2.119,1.092,4.238,1.7,6.355c0.056-0.031,0.104-0.064,0.193-0.098
		c10.104-3.709,26.341-8.736,46.282-11.639l0.075-0.008l1.357-7.16c-4.075,0.604-8.285,1.347-12.55,2.211
		C120.745,140.012,119.196,140.338,117.721,140.668L117.721,140.668z"/>
	<path fill="#005596" d="M98.856,122.473L84.682,44.468c-0.036,0.021-0.075,0.037-0.113,0.057c0,0-9.093,38.9-3.422,83.286
		c5.643-1.911,11.594-3.706,17.695-5.334C98.846,122.477,98.851,122.475,98.856,122.473L98.856,122.473z"/>
	<path fill="#005596" d="M168.784,113.434l-4.74-23.76l-4.704,23.758c1.512-0.037,3.075-0.075,4.63-0.075
		C165.583,113.357,167.168,113.395,168.784,113.434L168.784,113.434z"/>
	<path fill="#005596" d="M170.872,123.256c-0.226-1.089-1.307-6.228-1.568-7.316l-0.066-0.002c-1.632-0.042-3.377-0.083-5.153-0.083
		c-1.794,0-3.552,0.041-5.199,0.083l-0.06,0.002c-0.249,1.088-1.32,6.228-1.547,7.316c2.456-0.082,4.685-0.126,6.806-0.126
		C166.184,123.13,168.405,123.172,170.872,123.256L170.872,123.256z"/>
	<rect x="157.237" y="123.451" fill="#005596" width="0.003" height="0.007"/>
	<path fill="#005596" d="M164.084,132.731c2.593,0,5.363,0.073,8.706,0.233l-1.417-7.187l-0.151-0.005
		c-2.735-0.101-5.001-0.147-7.138-0.147c-2.162,0-4.443,0.049-7.172,0.149l-0.134,0.005l-1.429,7.188l0.012-0.001
		C158.76,132.807,161.531,132.731,164.084,132.731L164.084,132.731z"/>
	<path fill="#005596" d="M174.708,142.699l-1.422-7.208l-0.103-0.005c-3.484-0.176-6.378-0.257-9.1-0.257
		c-2.751,0-5.667,0.082-9.178,0.262l-0.054,0.002l-1.426,7.202c3.853-0.203,7.297-0.301,10.545-0.301
		C167.347,142.395,170.86,142.496,174.708,142.699L174.708,142.699z"/>
	<path fill="#005596" d="M180.973,205.695c-0.597,11.604-8.047,14.49-11.019,14.49c0,0-4.192,0.133-4.192-4.682
		c0,0,8.615-0.244,8.615-12.197l4.563-8.338C178.94,194.969,181.405,197.217,180.973,205.695L180.973,205.695z M164.996,223.564
		h-2.111v-12.352c-1.138-0.496-3.652-1.738-3.594-6.387c0.074-5.504-0.666-9.252-1.376-11.813c-0.727-2.609-5.145-5.359-5.145-5.359
		c4.495-5.002,8.426,1.781,8.263,0.938c-0.305-1.514,0.505-4.27,1.084-5.65c0.578-1.377,1.923-3.092,1.923-3.092
		s1.35,1.715,1.929,3.092c0.583,1.381,1.394,4.137,1.089,5.65c-0.167,0.844,3.769-5.939,8.262-0.938c0,0-4.42,2.75-5.146,5.359
		c-0.71,2.561-1.447,6.309-1.376,11.813c0.064,4.969-2.814,6.051-3.802,6.48V223.564L164.996,223.564z M158.104,220.186
		c-2.973,0-10.421-2.887-11.014-14.49c-0.432-8.479,2.031-10.727,2.031-10.727l4.563,8.338c0,11.953,8.618,12.197,8.618,12.197
		C162.303,220.318,158.104,220.186,158.104,220.186L158.104,220.186z M175.15,145.217c-3.944-0.221-7.561-0.324-11.066-0.324
		c-3.494,0-7.113,0.107-11.067,0.326l-0.06,0.004l-16.696,83.172c8.133,5.684,17.356,10.676,27.849,14.764
		c10.512-4.096,19.759-9.102,27.901-14.799l-16.807-83.141L175.15,145.217L175.15,145.217z"/>
	<path fill="#005596" d="M227.117,134.577c-3.083-0.814-6.213-1.592-9.302-2.309l-0.396-0.088c-1.411-0.322-2.851-0.641-4.311-0.953
		l-0.869-0.186c-1.814-0.382-3.428-0.711-4.939-1c-5.348-1.024-10.678-1.884-15.839-2.551l-0.115-0.017l1.432,7.411l0.258,0.037
		c4.16,0.605,8.337,1.33,12.761,2.22l0.26,0.05c6.568,1.327,13.244,2.946,19.842,4.815c5.914,1.674,11.739,3.533,17.319,5.527
		l0.321,0.113c0.597-2.566,1.145-5.131,1.628-7.688l-0.292-0.093C239.174,137.968,233.204,136.19,227.117,134.577L227.117,134.577z"
		/>
	<path fill="#005596" d="M225.436,144.471h-0.021l-0.06-0.027c-1.383-0.391-2.871-0.797-4.508-1.23l-0.094-0.027
		c-1.572-0.416-3.175-0.824-4.76-1.215c-3.41-0.835-6.873-1.609-10.326-2.31c-4.167-0.839-8.299-1.567-12.283-2.159l-0.1-0.015
		l1.555,7.224l0.085,0.014c2.881,0.422,5.863,0.932,9.364,1.602v-0.002l0.216,0.021c0.518,0.1,1.03,0.201,1.536,0.307l1.316,0.258
		c0.292,0.061,0.577,0.117,0.861,0.178c1.583,0.33,3.222,0.691,5.015,1.102c0.454,0.104,0.89,0.207,1.334,0.311
		c1.849,0.438,3.464,0.838,4.944,1.219c0.178,0.047,0.354,0.09,0.534,0.139c1.204,0.318,2.373,0.635,3.515,0.953l0.857,0.246
		c5.747,1.621,11.278,3.406,16.454,5.314c0.148,0.055,0.264,0.098,0.368,0.137c0.618-2.139,1.19-4.281,1.72-6.424l-0.377-0.131
		C237.025,147.963,231.254,146.121,225.436,144.471L225.436,144.471z"/>
	<path fill="#005596" d="M195.351,147.316l4.784,25.115l3.944-23.611c-0.001,0-0.002,0-0.005,0
		C201.049,148.238,198.19,147.75,195.351,147.316L195.351,147.316z"/>
	<path fill="#005596" d="M223.792,153.484l-10.052,55.314c12.969-14.967,21.414-32.258,26.782-49.881l-0.011-0.002
		C235.199,156.947,229.575,155.119,223.792,153.484L223.792,153.484z"/>
	<path fill="#005596" d="M247.067,127.919c5.698-44.433-3.419-83.394-3.419-83.394c-0.022-0.007-0.037-0.021-0.053-0.027
		l-14.186,78.073c0.003,0.002,0.008,0.002,0.016,0.005C235.487,124.204,241.426,126.001,247.067,127.919L247.067,127.919z"/>
	<path fill="#005596" d="M187.494,64.713l2.951-1.691l-7.271-4.189l1.208-0.41l-2.871-5.211l5.942-0.113l-0.245-1.255l7.399,4.274
		v-8.544l0.961,0.838l2.928-5.086l2.929,5.086l0.962-0.838v8.544l7.397-4.274l-0.243,1.255l5.946,0.113l-2.875,5.211l1.208,0.41
		l-7.27,4.189l2.948,1.691l-1.207,0.415l2.871,5.203l-5.948,0.116l0.252,1.252l-5.61-3.239v10.997h-1.28h-0.162h-1.276V68.459
		l-5.61,3.239l0.244-1.252l-5.943-0.116l2.877-5.203L187.494,64.713L187.494,64.713z M209.313,117.941l13.651-80.538
		c-17.287-4.151-37.814-6.253-50.2-7.213l16.324,84.637l0.064,0.007C195.695,115.577,202.479,116.624,209.313,117.941
		L209.313,117.941z"/>
	<path fill="#005596" d="M228.843,125.013c-1.347-0.364-2.793-0.738-4.302-1.117l-0.459-0.114
		c-5.016-1.256-10.107-2.387-15.139-3.36c-6.6-1.277-13.119-2.297-19.38-3.026c0.158,1.107,1.089,6.374,1.289,7.488l0.065,0.007
		c5.361,0.675,10.914,1.554,16.514,2.622l0.256,0.044c1.557,0.296,3.163,0.623,4.917,0.991l0.903,0.192
		c1.675,0.356,3.157,0.686,4.537,1.002l0.146,0.035c1.382,0.316,2.87,0.671,4.543,1.083l1.224,0.311
		c1.131,0.285,2.239,0.57,3.323,0.855l0.133,0.032c0.096,0.022,0.188,0.046,0.278,0.07l0.157,0.045
		c6.078,1.615,11.979,3.374,17.553,5.233l0.214,0.068c0.416-2.361,0.775-4.713,1.106-7.056l-0.225-0.073
		C240.861,128.438,234.924,126.643,228.843,125.013L228.843,125.013z"/>
	<rect x="85.201" y="149.814" fill="#FFCF01" width="0" height="0.004"/>
	<path fill="#FFCF01" d="M168.772,113.42c-1.614-0.044-3.19-0.063-4.802-0.063c-1.555,0-3.119,0.038-4.63,0.075
		c-0.015,0-0.515,2.508-0.515,2.508l0.06-0.002c1.647-0.042,3.405-0.083,5.199-0.083c1.776,0,3.521,0.041,5.153,0.083l0.066,0.002
		C169.304,115.94,168.79,113.42,168.772,113.42L168.772,113.42z"/>
	<path fill="#FFCF01" d="M139.108,114.788c-6.527,0.733-13.307,1.767-20.153,3.081c0,0-0.001,0-0.003,0
		c-6.714,1.286-13.474,2.833-20.096,4.604c-0.006,0.002-0.01,0.004-0.015,0.004c-6.101,1.628-12.052,3.423-17.695,5.334
		c0.009,0.075,0.014,0.147,0.023,0.223c0.089,0.678,0.167,1.351,0.264,2.03c-0.005,0.004-0.012,0.006-0.015,0.007
		c0,0.004,0,0.009,0,0.009c0.01,0.063,0.02,0.146,0.029,0.213h0.012c0.027-0.004,0.059-0.014,0.086-0.025
		c5.616-1.906,11.594-3.707,17.773-5.354c6.577-1.752,13.297-3.29,19.972-4.571c6.599-1.264,13.129-2.268,19.416-2.992l0.498-2.57
		L139.108,114.788L139.108,114.788z"/>
	<path fill="#FFCF01" d="M81.17,128.033c-0.01,0.003-0.022,0.006-0.032,0.01l0.281,2.027c0.003-0.001,0.01-0.003,0.015-0.007
		C81.337,129.384,81.259,128.711,81.17,128.033L81.17,128.033z"/>
	<path fill="#FFCF01" d="M229.424,122.576c-0.007-0.003-0.013-0.003-0.016-0.005c-6.646-1.779-13.401-3.338-20.092-4.628
		l-0.004-0.002c-6.833-1.317-13.617-2.364-20.16-3.107l-0.064-0.007l0.042,0.225c0,0,0.399,2.118,0.408,2.118
		c-0.009,0,0.003,0.092,0.023,0.225c6.261,0.729,12.78,1.749,19.38,3.026c5.032,0.974,10.124,2.104,15.139,3.36l0.459,0.114
		c1.509,0.379,2.956,0.753,4.302,1.117c6.082,1.63,12.019,3.425,17.652,5.333l0.225,0.073c0.047-0.335,0.115-0.675,0.159-1.01
		c0.059-0.424,0.107-0.85,0.164-1.274c0.008-0.071,0.017-0.146,0.024-0.216C241.426,126.001,235.487,124.204,229.424,122.576
		L229.424,122.576z"/>
	<path fill="#FFCF01" d="M133.434,144.65c-19.941,2.902-36.178,7.93-46.282,11.639c-0.089,0.033-0.137,0.066-0.193,0.098
		c0.021,0.072,0.704,2.383,0.725,2.453l0.012-0.004c3.569-1.33,9.379-3.352,16.785-5.436c0.007-0.002,0.013-0.002,0.016-0.008
		c6.435-1.803,13.063-3.357,19.7-4.619l0.004-0.002c3.072-0.58,5.932-1.068,8.737-1.49l0.572-2.639L133.434,144.65L133.434,144.65z"
		/>
	<path fill="#FFCF01" d="M240.872,156.371c-5.175-1.908-10.707-3.693-16.454-5.314l-0.857-0.246
		c-1.142-0.318-2.311-0.635-3.515-0.953c-0.18-0.049-0.355-0.092-0.534-0.139c-1.48-0.381-3.096-0.781-4.944-1.219
		c-0.444-0.104-0.88-0.207-1.334-0.311c-1.793-0.41-3.433-0.771-5.015-1.102c-0.285-0.061-0.57-0.117-0.861-0.178l-1.316-0.258
		c-0.506-0.105-1.019-0.207-1.536-0.307l-0.216-0.021v0.002c-3.5-0.67-6.482-1.18-9.364-1.602l-0.085-0.014l0.051,0.227l0.416,2.152
		l0.044,0.227c2.839,0.434,5.698,0.922,8.723,1.504c0.003,0,0.003,0,0.005,0c6.625,1.271,13.251,2.834,19.686,4.658
		c0.009,0.002,0.02,0.002,0.026,0.006c5.784,1.635,11.408,3.463,16.719,5.432l0.011,0.002c0.021-0.066,0.045-0.137,0.064-0.205
		c0.201-0.664,0.403-1.33,0.598-1.998c0.02-0.066,0.036-0.139,0.056-0.207C241.135,156.469,241.02,156.426,240.872,156.371
		L240.872,156.371z"/>
	<path fill="#FFCF01" d="M240.603,158.719l0.594-1.998c-0.002-0.002-0.01-0.002-0.013-0.006c-0.195,0.668-0.397,1.334-0.598,1.998
		C240.593,158.717,240.599,158.717,240.603,158.719L240.603,158.719z"/>
	<path fill="#FFCF01" d="M174.708,142.699c-3.848-0.203-7.362-0.305-10.738-0.305c-3.248,0-6.692,0.098-10.545,0.301l-0.468,2.527
		l0.06-0.004c3.954-0.219,7.573-0.326,11.067-0.326c3.505,0,7.122,0.104,11.066,0.324l0.054,0.002L174.708,142.699L174.708,142.699z
		"/>
	<polygon fill="#FFCF01" points="174.739,142.918 175.132,144.855 174.751,142.918 174.739,142.918 	"/>
	<path fill="#FFCF01" d="M170.872,123.256c-2.467-0.084-4.688-0.126-6.788-0.126c-2.121,0-4.35,0.044-6.806,0.126
		c-0.025,0.106-0.5,2.524-0.5,2.524l0.134-0.005c2.729-0.101,5.01-0.149,7.172-0.149c2.136,0,4.403,0.047,7.138,0.147l0.151,0.005
		C171.373,125.778,170.899,123.385,170.872,123.256L170.872,123.256z"/>
	<path fill="#FFCF01" d="M137.186,124.875c-5.291,0.658-10.801,1.529-16.372,2.588l-0.002-0.007l-0.228,0.041
		c-1.476,0.282-3.017,0.588-4.855,0.971c-0.333,0.068-0.666,0.14-0.995,0.211l-0.185,0.04c-1.318,0.28-2.62,0.563-3.895,0.852
		l-0.781,0.179c-2.99,0.686-6.047,1.436-9.083,2.231l-0.211,0.059c-6.139,1.618-12.364,3.466-18.002,5.346
		c0.013,0.073,0.024,0.142,0.037,0.218c0.003,0,0.006-0.004,0.01-0.006c0.125,0.702,0.248,1.403,0.374,2.102c0,0,0,0-0.003,0
		c0.017,0.086,0.036,0.181,0.053,0.267l0.078-0.027c6.274-2.096,12.157-3.859,17.995-5.396c3.057-0.808,6.204-1.584,9.361-2.309
		l0.282-0.067c1.586-0.361,3.18-0.714,4.736-1.043l0.299-0.063c1.829-0.388,3.534-0.731,5.22-1.051
		c5.328-1.018,10.624-1.873,15.747-2.535l0.04-0.223c-0.003,0-0.007,0.001-0.011,0.001l0.417-2.158c0.003,0,0.003,0,0.003,0
		l0.044-0.227L137.186,124.875L137.186,124.875z"/>
	<polygon fill="#FFCF01" points="137.216,125.095 137.212,125.095 136.795,127.253 136.806,127.252 137.216,125.095 
		137.216,125.095 	"/>
	<path fill="#FFCF01" d="M82.613,137.603c0.127,0.679,0.234,1.343,0.381,2.096c0.003,0,0.003,0,0.003,0
		c-0.126-0.698-0.249-1.399-0.374-2.102C82.62,137.599,82.616,137.603,82.613,137.603L82.613,137.603z"/>
	<rect x="82.996" y="139.697" fill="#FFCF01" width="0" height="0.003"/>
	<path fill="#FFCF01" d="M245.399,137.406c-5.573-1.859-11.475-3.618-17.553-5.233l-0.157-0.045c-0.09-0.024-0.183-0.048-0.278-0.07
		l-0.133-0.032c-1.084-0.285-2.191-0.57-3.323-0.855l-1.224-0.311c-1.673-0.412-3.162-0.767-4.543-1.083l-0.146-0.035
		c-1.38-0.316-2.862-0.646-4.537-1.002l-0.903-0.192c-1.754-0.368-3.359-0.695-4.917-0.991l-0.256-0.044
		c-5.6-1.068-11.152-1.947-16.514-2.622l-0.065-0.007c0.021,0.134,0.04,0.226,0.04,0.226l0.412,2.144l0.043,0.223l0.115,0.017
		c5.161,0.667,10.491,1.526,15.839,2.551c1.511,0.289,3.125,0.618,4.939,1l0.869,0.186c1.46,0.313,2.899,0.631,4.311,0.953
		l0.396,0.088c3.089,0.717,6.22,1.494,9.302,2.309c6.087,1.613,12.057,3.391,17.758,5.29l0.292,0.093
		c0.016-0.071,0.03-0.143,0.042-0.216c0.128-0.682,0.247-1.366,0.369-2.052c0.011-0.072,0.02-0.141,0.035-0.218L245.399,137.406
		L245.399,137.406z"/>
	<path fill="#FFCF01" d="M245.23,139.751l0.349-2.059c-0.123,0.686-0.241,1.37-0.369,2.052
		C245.216,139.748,245.222,139.751,245.23,139.751L245.23,139.751z"/>
	<path fill="#FFCF01" d="M172.79,132.965c-3.343-0.16-6.113-0.233-8.706-0.233c-2.553,0-5.324,0.075-8.723,0.235l-0.012,0.001
		l-0.042,0.218l-0.41,2.086l-0.046,0.222l0.054-0.002c3.511-0.18,6.427-0.262,9.178-0.262c2.722,0,5.616,0.081,9.1,0.257
		l0.103,0.005L172.79,132.965L172.79,132.965z"/>
	<path fill="#FFCF01" d="M135.25,134.894c-4.195,0.606-8.581,1.363-13.046,2.263c-1.632,0.326-3.297,0.678-5.091,1.073l-0.301,0.069
		c-1.576,0.348-3.191,0.724-4.799,1.115l-0.321,0.077c-1.502,0.365-3.056,0.757-4.615,1.165l-0.212,0.056
		c-1.431,0.377-2.886,0.771-4.492,1.222c-6.067,1.709-12.185,3.654-17.693,5.637c0.161,0.701,0.316,1.404,0.487,2.102
		c0.013,0.049,0.022,0.1,0.035,0.145c0.02,0.074,0.039,0.145,0.056,0.215l0.019-0.008c5.597-2.014,11.511-3.898,17.586-5.611
		c4.708-1.33,9.516-2.545,14.286-3.617l0.572-0.127c1.475-0.33,3.024-0.656,4.595-0.975c4.266-0.864,8.476-1.606,12.55-2.211
		c0.024-0.005,0.494-2.604,0.494-2.604L135.25,134.894L135.25,134.894z"/>
	<rect x="85.199" y="149.816" fill="#FFCF01" width="0.004" height="0"/>
	<path fill="#FFCF01" d="M85.168,149.672c0.008,0.047,0.021,0.102,0.031,0.145h0.004C85.19,149.771,85.181,149.721,85.168,149.672
		L85.168,149.672z"/>
	<path fill="#FFCF01" d="M243.218,147.535c-5.581-1.994-11.405-3.854-17.319-5.527c-6.598-1.869-13.273-3.488-19.842-4.815
		l-0.26-0.05c-4.424-0.89-8.602-1.614-12.761-2.22l-0.258-0.037l0.042,0.226l0.418,2.147l0.047,0.229l0.1,0.015
		c3.984,0.592,8.115,1.32,12.283,2.159c3.453,0.7,6.916,1.475,10.326,2.31c1.585,0.391,3.188,0.799,4.76,1.215l0.094,0.027
		c1.637,0.434,3.125,0.84,4.508,1.23l0.06,0.027h0.021c5.818,1.65,11.589,3.492,17.146,5.482l0.377,0.131
		c0.018-0.07,0.038-0.139,0.058-0.215c0.165-0.666,0.318-1.336,0.475-2.004c0.018-0.074,0.03-0.145,0.047-0.217L243.218,147.535
		L243.218,147.535z"/>
	<path fill="#FFCF01" d="M142.096,66.393c0,0,2.916-2.735,2.916-5.376c0-6.005-3.231-5.601-4.63-5.601
		c-3.225,0-7.618,5.026-7.618,5.026c0.486-1.101,1.32-3.051,1.569-3.665c0.099-0.25,0.231-0.551,0.359-0.896
		c0.472-1.227,0.969-3.053,0.16-5.541c-0.742-2.317-2.346-3.316-3.659-4.931c-1.397-1.727-1.938-2.278-1.938-2.278
		s-0.538,0.551-1.942,2.278c-1.311,1.615-2.912,2.613-3.656,4.931c-0.807,2.487-0.31,4.314,0.16,5.541
		c0.13,0.346,0.264,0.646,0.361,0.896c0.247,0.614,1.083,2.564,1.569,3.665c0,0-4.393-5.026-7.617-5.026
		c-1.394,0-4.628-0.405-4.628,5.601c0,2.641,2.912,5.376,2.912,5.376s0.425-2.164,3.582-2.164c2.173,0,3.663,2.29,3.663,4.852
		c0,2.113-0.435,3.882-0.952,4.107c0,0,2.303,1.59,2.965,2.254c0.666,0.668,3.586,4.204,3.586,4.204s2.922-3.535,3.582-4.204
		c0.669-0.664,2.973-2.254,2.973-2.254c-0.52-0.225-0.958-1.994-0.958-4.107c0-2.562,1.485-4.852,3.664-4.852
		C141.672,64.229,142.096,66.393,142.096,66.393L142.096,66.393z"/>
	<path fill="#FFCF01" d="M165.762,215.504c0,4.814,4.192,4.682,4.192,4.682c2.972,0,10.422-2.887,11.019-14.49
		c0.432-8.479-2.033-10.727-2.033-10.727l-4.563,8.338C174.377,215.26,165.762,215.504,165.762,215.504L165.762,215.504z"/>
	<path fill="#FFCF01" d="M153.685,203.307l-4.563-8.338c0,0-2.462,2.248-2.031,10.727c0.593,11.604,8.041,14.49,11.014,14.49
		c0,0,4.198,0.133,4.198-4.682C162.303,215.504,153.685,215.26,153.685,203.307L153.685,203.307z"/>
	<path fill="#FFCF01" d="M168.797,204.826c-0.071-5.504,0.666-9.252,1.376-11.813c0.726-2.609,5.146-5.359,5.146-5.359
		c-4.493-5.002-8.43,1.781-8.262,0.938c0.305-1.514-0.506-4.27-1.089-5.65c-0.58-1.377-1.929-3.092-1.929-3.092
		s-1.345,1.715-1.923,3.092c-0.579,1.381-1.39,4.137-1.084,5.65c0.163,0.844-3.769-5.939-8.263-0.938c0,0,4.418,2.75,5.145,5.359
		c0.711,2.561,1.451,6.309,1.376,11.813c-0.058,4.648,2.456,5.891,3.594,6.387v12.352h2.111v-12.258
		C165.983,210.877,168.861,209.795,168.797,204.826L168.797,204.826z"/>
	<polygon fill="#FFCF01" points="191.773,70.446 191.529,71.698 197.14,68.459 197.14,79.456 198.416,79.456 198.578,79.456 
		199.857,79.456 199.857,68.459 205.468,71.698 205.216,70.446 211.164,70.33 208.293,65.127 209.5,64.713 206.552,63.021 
		213.821,58.833 212.613,58.423 215.488,53.212 209.542,53.099 209.786,51.844 202.389,56.118 202.389,47.574 201.426,48.412 
		198.498,43.326 195.57,48.412 194.608,47.574 194.608,56.118 187.209,51.844 187.454,53.099 181.512,53.212 184.383,58.423 
		183.174,58.833 190.445,63.021 187.494,64.713 188.707,65.127 185.83,70.33 191.773,70.446 	"/>
</g>
<g>
	<polygon fill="#FFFFFF" points="320.49,59.932 311.18,59.932 311.18,127.318 353.729,127.318 353.729,118.74 320.49,118.74 
		320.49,59.932 	"/>
	<path fill="#FFFFFF" d="M377.793,87.414c4.233,0,7.838,2.313,9.404,6.018c0.817,2.009,1.051,3.187,1.216,5.856h-21.238
		c0.163-2.671,0.397-3.847,1.207-5.844C369.953,89.727,373.562,87.414,377.793,87.414L377.793,87.414z M377.793,79.473
		c-12.107,0-19.63,9.272-19.63,24.198c0,15.604,7.393,24.196,20.815,24.196c8.319,0,12.777-2.789,17.275-7.291l0.896-0.891
		l-6.261-5.494l-0.785,0.784c-3.565,3.563-6.325,4.768-10.94,4.768c-7.438,0-11.68-4.66-12.033-13.155h30.294v-4.195
		C397.426,88.253,389.9,79.473,377.793,79.473L377.793,79.473z"/>
	<path fill="#FFFFFF" d="M423.816,119.654c-7.2,0-10.138-4.633-10.138-15.983c0-11.353,2.938-15.984,10.138-15.984
		c7.136,0,10.047,4.631,10.047,15.984C433.863,115.021,430.952,119.654,423.816,119.654L423.816,119.654z M433.863,83.394
		c-3.763-3.402-7.873-3.921-11.508-3.921c-4.712,0-9.121,1.598-11.797,4.275c-5.221,5.221-5.825,13.871-5.825,19.922
		c0,6.05,0.604,14.699,5.825,19.923c2.679,2.676,7.09,4.273,11.797,4.273c3.657,0,7.795-0.537,11.598-4.055v3.506h8.853V59.932
		h-8.943V83.394L433.863,83.394z"/>
	<path fill="#FFFFFF" d="M471.429,119.654c-7.201,0-10.141-4.633-10.141-15.983c0-11.353,2.939-15.984,10.141-15.984
		c7.133,0,10.047,4.631,10.047,15.984C481.476,115.021,478.562,119.654,471.429,119.654L471.429,119.654z M481.476,83.394
		c-3.766-3.402-7.875-3.921-11.51-3.921c-4.713,0-9.123,1.598-11.795,4.275c-5.225,5.221-5.826,13.871-5.826,19.922
		c0,6.05,0.602,14.699,5.826,19.923c2.676,2.676,7.088,4.273,11.795,4.273c3.656,0,7.797-0.537,11.6-4.055v3.506h8.852V59.932
		h-8.941V83.394L481.476,83.394z"/>
	<path fill="#FFFFFF" d="M517.208,113.599l-11.477-33.576h-9.666l16.596,45.195l-3.051,8.369c-1.314,3.705-2.297,4.781-6.277,4.781
		h-3.195v8.217h4.018c3.932,0,7.25-1.189,9.572-3.422c1.426-1.324,2.537-3.152,3.502-5.754l21.039-57.387h-9.668L517.208,113.599
		L517.208,113.599z"/>
	<polygon fill="#FFFFFF" points="575.116,59.932 565.806,59.932 565.806,127.318 608.354,127.318 608.354,118.74 575.116,118.74 
		575.116,59.932 	"/>
	<polygon fill="#FFFFFF" points="615.864,127.318 624.808,127.318 624.808,80.023 615.864,80.023 615.864,127.318 	"/>
	<polygon fill="#FFFFFF" points="615.499,69.607 625.267,69.607 625.267,59.841 615.499,59.841 615.499,69.607 	"/>
	<path fill="#FFFFFF" d="M665.241,103.67c0,11.351-2.91,15.983-10.047,15.983c-7.199,0-10.137-4.633-10.137-15.983
		c0-11.353,2.938-15.984,10.137-15.984C662.331,87.687,665.241,92.318,665.241,103.67L665.241,103.67z M656.563,79.473
		c-3.633,0-7.742,0.519-11.506,3.921V59.932h-8.943v67.386h8.943v-3.502c3.787,3.514,7.889,4.051,11.506,4.051
		c4.709,0,9.117-1.598,11.795-4.275c5.223-5.222,5.826-13.871,5.826-19.921c0-6.052-0.604-14.701-5.826-19.922
		C665.685,81.07,661.276,79.473,656.563,79.473L656.563,79.473z"/>
	<path fill="#FFFFFF" d="M704.083,79.473c-4.426,0-8.545,1.505-11.416,4.061v-3.511h-8.943v47.295h8.943v-28.76
		c0-6.4,3.945-10.872,9.59-10.872c3.09,0,4.645,0.66,6.926,2.943l0.842,0.845l6.502-6.621l-0.83-0.831
		C712.509,80.833,709.036,79.473,704.083,79.473L704.083,79.473z"/>
	<path fill="#FFFFFF" d="M736.735,119.835c-8.049,0-9.135-3.28-9.135-6.487c0-2.902,0.92-6.761,8.859-6.761h11.42v3.658
		c0,3.433-0.627,5.688-1.922,6.909C743.396,119.635,740.267,119.835,736.735,119.835L736.735,119.835z M737.649,79.473
		c-6.99,0-12.246,1.191-16.826,7.127l-0.666,0.861l6.266,5.755l0.779-1.099c2.439-3.448,5.053-4.612,10.357-4.612
		c7.33,0,10.32,2.515,10.32,8.677v3.106h-12.332c-10.307,0-16.705,5.422-16.705,14.15c0,3.972,1.355,7.608,3.711,9.96
		c3.074,3.174,6.998,4.469,13.541,4.469c5.242,0,8.617-0.92,11.785-3.385v2.836h8.941V95.635
		C756.821,88.26,753.497,79.473,737.649,79.473L737.649,79.473z"/>
	<path fill="#FFFFFF" d="M788.245,79.473c-4.426,0-8.545,1.505-11.414,4.061v-3.511h-8.947v47.295h8.947v-28.76
		c0-6.4,3.939-10.872,9.59-10.872c3.086,0,4.641,0.66,6.922,2.943l0.848,0.845l6.496-6.621l-0.828-0.831
		C796.671,80.833,793.198,79.473,788.245,79.473L788.245,79.473z"/>
	<path fill="#FFFFFF" d="M822.665,113.599l-11.477-33.576h-9.664l16.596,45.195l-3.051,8.369c-1.316,3.705-2.299,4.781-6.281,4.781
		h-3.191v8.217h4.014c3.938,0,7.254-1.189,9.572-3.422c1.428-1.324,2.541-3.152,3.504-5.754l21.039-57.387h-9.67L822.665,113.599
		L822.665,113.599z"/>
	<path fill="#FFFFFF" d="M366.272,190.092c0,5.078-3.162,8.357-8.056,8.357c-4.864,0-8.006-3.279-8.006-8.357v-24.367h-5.134v24.668
		c0,7.41,5.525,12.787,13.141,12.787c7.643,0,13.19-5.377,13.19-12.787v-24.668h-5.134V190.092L366.272,190.092z"/>
	<path fill="#FFFFFF" d="M389.791,176.496c-2.434,0-4.58,0.734-6.296,2.137v-1.834h-4.931v26.08h4.931v-15.91
		c0-3.832,1.95-5.943,5.489-5.943c3.508,0,5.439,2.111,5.439,5.943v15.91h4.932v-16.516c0-3.102-0.931-5.584-2.76-7.357
		C394.956,177.363,392.602,176.496,389.791,176.496L389.791,176.496z"/>
	<polygon fill="#FFFFFF" points="406.109,202.879 411.041,202.879 411.041,176.799 406.109,176.799 406.109,202.879 	"/>
	<polygon fill="#FFFFFF" points="405.908,171.059 411.292,171.059 411.292,165.674 405.908,165.674 405.908,171.059 	"/>
	<polygon fill="#FFFFFF" points="425.447,195.314 419.164,176.799 413.836,176.799 423.375,202.879 427.511,202.879 
		437.105,176.799 431.774,176.799 425.447,195.314 	"/>
	<path fill="#FFFFFF" d="M442.953,187.424c0.092-1.475,0.221-2.121,0.668-3.225c0.865-2.049,2.855-3.322,5.189-3.322
		c2.334,0,4.32,1.273,5.184,3.316c0.451,1.109,0.58,1.76,0.67,3.23H442.953L442.953,187.424z M448.81,176.496
		c-6.677,0-10.825,5.113-10.825,13.342c0,8.605,4.076,13.342,11.478,13.342c4.586,0,7.045-1.537,9.525-4.018l0.494-0.494
		l-3.453-3.025l-0.432,0.432c-1.967,1.965-3.488,2.627-6.035,2.627c-4.097,0-6.435-2.568-6.63-7.254h16.701v-2.314
		C459.632,181.342,455.483,176.496,448.81,176.496L448.81,176.496z"/>
	<path fill="#FFFFFF" d="M482.907,179.008c-1.756-1.76-3.672-2.512-6.404-2.512c-2.438,0-4.713,0.832-6.293,2.238v-1.936h-4.932
		v26.08h4.932V187.02c0-3.527,2.174-5.994,5.287-5.994c1.703,0,2.561,0.365,3.818,1.627l0.465,0.463l3.584-3.652L482.907,179.008
		L482.907,179.008z"/>
	<path fill="#FFFFFF" d="M496.505,187.629l-3.984-0.355c-3.285-0.268-3.73-1.648-3.73-2.971c0-2.979,3.063-3.426,4.887-3.426
		c2.539,0,4.625,0.615,6.195,1.828l0.455,0.35l3.283-3.281l-0.559-0.459c-2.252-1.842-5.477-2.818-9.326-2.818
		c-5.84,0-9.764,3.178-9.764,7.904c0,3.027,1.387,6.744,7.996,7.299l4.076,0.352c3.113,0.27,3.535,1.656,3.535,2.975
		c0,3.24-3.723,3.727-5.943,3.727c-3.156,0-5.521-0.873-7.23-2.668l-0.461-0.484l-3.363,3.361l0.48,0.463
		c2.701,2.598,5.977,3.756,10.625,3.756c6.512,0,10.721-3.219,10.721-8.205C504.397,190.525,501.817,188.119,496.505,187.629
		L496.505,187.629z"/>
	<polygon fill="#FFFFFF" points="509.44,202.879 514.37,202.879 514.37,176.799 509.44,176.799 509.44,202.879 	"/>
	<polygon fill="#FFFFFF" points="509.239,171.059 514.624,171.059 514.624,165.674 509.239,165.674 509.239,171.059 	"/>
	<path fill="#FFFFFF" d="M526.96,169.197h-4.932v7.754h-3.121v4.074h3.121v14.553c0,4.434,2.748,7.301,6.998,7.301h3.221v-4.43
		h-2.566c-1.855,0-2.721-0.943-2.721-2.971v-14.453h5.287v-4.074h-5.287V169.197L526.96,169.197z"/>
	<path fill="#FFFFFF" d="M544.784,195.314l-6.326-18.516h-5.33l9.148,24.922l-1.68,4.611c-0.725,2.047-1.268,2.639-3.461,2.639
		h-1.762v4.533h2.215c2.17,0,3.996-0.658,5.275-1.891c0.789-0.729,1.402-1.738,1.932-3.174l11.6-31.641h-5.332L544.784,195.314
		L544.784,195.314z"/>
	<path fill="#FFFFFF" d="M584.458,197.027c-1.045,1.047-2.492,1.623-4.07,1.623c-1.566,0-2.957-0.559-4.018-1.623
		c-1.602-1.6-1.822-4.4-1.822-7.189c0-2.787,0.221-5.592,1.822-7.189c1.061-1.063,2.451-1.623,4.018-1.623
		c1.578,0,3.025,0.578,4.07,1.627c1.637,1.633,1.771,4.564,1.771,7.186C586.229,192.461,586.095,195.393,584.458,197.027
		L584.458,197.027z M580.388,176.496c-2.977,0-5.592,1.043-7.564,3.018c-2.826,2.885-3.209,6.84-3.209,10.324
		c0,3.488,0.383,7.443,3.213,10.33c1.969,1.971,4.584,3.012,7.561,3.012s5.592-1.041,7.566-3.016
		c2.824-2.881,3.209-6.838,3.209-10.326c0-3.484-0.385-7.441-3.215-10.326C585.979,177.539,583.364,176.496,580.388,176.496
		L580.388,176.496z"/>
	<path fill="#FFFFFF" d="M597.663,172.924v4.027h-3.17v4.074h3.17v21.854h4.932v-21.854h5.287v-4.074h-5.287v-3.928
		c0-2.029,0.848-2.971,2.67-2.971h2.617v-4.43h-3.271C600.392,165.623,597.663,168.488,597.663,172.924L597.663,172.924z"/>
	<polygon fill="#FFFFFF" points="650.897,192.662 643.53,165.725 639.106,165.725 631.741,192.662 625.218,165.725 619.784,165.725 
		629.284,202.879 633.86,202.879 641.319,175.971 648.776,202.879 653.356,202.879 662.853,165.725 657.419,165.725 
		650.897,192.662 	"/>
	<polygon fill="#FFFFFF" points="665.745,171.059 671.13,171.059 671.13,165.674 665.745,165.674 665.745,171.059 	"/>
	<polygon fill="#FFFFFF" points="665.948,202.879 670.878,202.879 670.878,176.799 665.948,176.799 665.948,202.879 	"/>
	<path fill="#FFFFFF" d="M689.159,176.496c-2.434,0-4.58,0.734-6.295,2.137v-1.834h-4.932v26.08h4.932v-15.91
		c0-3.832,1.951-5.943,5.49-5.943c3.506,0,5.439,2.111,5.439,5.943v15.91h4.928v-16.516c0-3.102-0.928-5.584-2.756-7.357
		C694.323,177.363,691.972,176.496,689.159,176.496L689.159,176.496z"/>
	<path fill="#FFFFFF" d="M714.69,198.65c-3.971,0-5.59-2.551-5.59-8.813c0-6.258,1.619-8.813,5.59-8.813
		c3.936,0,5.539,2.555,5.539,8.813C720.229,196.1,718.626,198.65,714.69,198.65L714.69,198.65z M720.229,178.66
		c-2.076-1.879-4.34-2.164-6.346-2.164c-2.596,0-5.027,0.881-6.502,2.359c-2.881,2.877-3.211,7.648-3.211,10.982
		c0,3.338,0.33,8.105,3.211,10.986c1.477,1.475,3.91,2.355,6.502,2.355c2.018,0,4.301-0.295,6.396-2.236v1.936h4.881v-37.154h-4.932
		V178.66L720.229,178.66z"/>
	<path fill="#FFFFFF" d="M743.452,187.629l-3.984-0.355c-3.285-0.268-3.729-1.648-3.729-2.971c0-2.979,3.063-3.426,4.887-3.426
		c2.539,0,4.623,0.615,6.195,1.828l0.455,0.35l3.283-3.281l-0.559-0.459c-2.254-1.842-5.477-2.818-9.326-2.818
		c-5.842,0-9.766,3.178-9.766,7.904c0,3.027,1.389,6.744,7.998,7.299l4.076,0.352c3.111,0.27,3.533,1.656,3.533,2.975
		c0,3.24-3.723,3.727-5.941,3.727c-3.158,0-5.523-0.873-7.23-2.668l-0.463-0.484l-3.361,3.361l0.48,0.463
		c2.699,2.598,5.977,3.756,10.625,3.756c6.512,0,10.721-3.219,10.721-8.205C751.347,190.525,748.765,188.119,743.452,187.629
		L743.452,187.629z"/>
	<path fill="#FFFFFF" d="M769.921,197.027c-1.045,1.047-2.49,1.623-4.068,1.623c-1.568,0-2.959-0.559-4.02-1.623
		c-1.6-1.6-1.822-4.4-1.822-7.189c0-2.787,0.223-5.592,1.824-7.189c1.059-1.063,2.449-1.623,4.018-1.623
		c1.578,0,3.023,0.578,4.068,1.627c1.637,1.633,1.773,4.564,1.773,7.186C771.694,192.461,771.558,195.393,769.921,197.027
		L769.921,197.027z M765.853,176.496c-2.977,0-5.592,1.043-7.568,3.018c-2.824,2.885-3.205,6.84-3.205,10.324
		c0,3.488,0.381,7.443,3.209,10.33c1.973,1.971,4.588,3.012,7.564,3.012s5.59-1.041,7.566-3.016
		c2.828-2.881,3.207-6.838,3.207-10.326c0-3.484-0.379-7.441-3.209-10.326C771.442,177.539,768.829,176.496,765.853,176.496
		L765.853,176.496z"/>
	<path fill="#FFFFFF" d="M793.548,176.496c-2.439,0-4.711,0.832-6.293,2.238v-1.936h-4.934v26.08h4.934V187.02
		c0-3.527,2.174-5.994,5.287-5.994c1.703,0,2.559,0.365,3.816,1.623l0.465,0.467l3.586-3.652l-0.457-0.455
		C798.194,177.248,796.28,176.496,793.548,176.496L793.548,176.496z"/>
</g>
</svg>
